<svg width="40" height="40" viewBox="0 0 40 40" fill="#848CAC" xmlns="http://www.w3.org/2000/svg">
    <path fill-rule="evenodd" clip-rule="evenodd"
          d="M11.3069 13.3451C11.3069 12.5167 11.9785 11.8451 12.8069 11.8451H17.3069C18.1354 11.8451 18.8069 12.5167 18.8069 13.3451V17.8451C18.8069 18.6735 18.1354 19.3451 17.3069 19.3451H12.8069C11.9785 19.3451 11.3069 18.6735 11.3069 17.8451V13.3451ZM17.3069 13.3451H12.8069V17.8451H17.3069V13.3451ZM20.3069 13.3451C20.3069 12.5167 20.9785 11.8451 21.8069 11.8451H26.3069C27.1354 11.8451 27.8069 12.5167 27.8069 13.3451V17.8451C27.8069 18.6735 27.1354 19.3451 26.3069 19.3451H21.8069C20.9785 19.3451 20.3069 18.6735 20.3069 17.8451V13.3451ZM26.3069 13.3451H21.8069V17.8451H26.3069V13.3451ZM11.3069 22.3451C11.3069 21.5167 11.9785 20.8451 12.8069 20.8451H17.3069C18.1354 20.8451 18.8069 21.5167 18.8069 22.3451V26.8451C18.8069 27.6735 18.1354 28.3451 17.3069 28.3451H12.8069C11.9785 28.3451 11.3069 27.6735 11.3069 26.8451V22.3451ZM17.3069 22.3451H12.8069V26.8451H17.3069V22.3451ZM20.3069 22.3451C20.3069 21.5167 20.9785 20.8451 21.8069 20.8451H26.3069C27.1354 20.8451 27.8069 21.5167 27.8069 22.3451V26.8451C27.8069 27.6735 27.1354 28.3451 26.3069 28.3451H21.8069C20.9785 28.3451 20.3069 27.6735 20.3069 26.8451V22.3451ZM26.3069 22.3451H21.8069V26.8451H26.3069V22.3451Z"
          />
</svg>
