<svg width="40" height="40" viewBox="0 0 40 40" fill="848CAC" xmlns="http://www.w3.org/2000/svg">
    <path d="M29.6478 24.125C29.7469 24.2969 29.7738 24.501 29.7226 24.6927C29.6715 24.8844 29.5465 25.0481 29.375 25.1478L20.375 30.3978C20.2603 30.4647 20.1299 30.4999 19.9972 30.4999C19.8644 30.4999 19.7341 30.4647 19.6194 30.3978L10.6194 25.1478C10.4503 25.0462 10.3281 24.8822 10.2792 24.6911C10.2302 24.5001 10.2585 24.2974 10.3578 24.1271C10.4572 23.9567 10.6196 23.8324 10.81 23.7809C11.0004 23.7295 11.2034 23.7551 11.375 23.8522L20 28.8819L28.625 23.8522C28.7969 23.7531 29.0011 23.7262 29.1927 23.7773C29.3844 23.8285 29.5481 23.9535 29.6478 24.125ZM28.625 19.3522L20 24.3819L11.375 19.3522C11.2042 19.2671 11.0075 19.2504 10.8248 19.3053C10.6421 19.3602 10.4872 19.4827 10.3916 19.6478C10.2961 19.8129 10.267 20.0082 10.3103 20.194C10.3537 20.3798 10.4662 20.5421 10.625 20.6478L19.625 25.8978C19.7397 25.9647 19.8701 25.9999 20.0028 25.9999C20.1356 25.9999 20.2659 25.9647 20.3806 25.8978L29.3806 20.6478C29.4671 20.5989 29.5429 20.5333 29.6038 20.4548C29.6647 20.3764 29.7094 20.2866 29.7353 20.1907C29.7612 20.0948 29.7679 19.9948 29.7548 19.8963C29.7417 19.7979 29.7092 19.703 29.6592 19.6172C29.6091 19.5314 29.5426 19.4564 29.4633 19.3965C29.384 19.3367 29.2937 19.2932 29.1975 19.2685C29.1013 19.2439 29.0011 19.2386 28.9028 19.2529C28.8046 19.2673 28.7101 19.301 28.625 19.3522ZM10.25 15.5C10.2503 15.3686 10.2851 15.2396 10.3509 15.126C10.4167 15.0123 10.5112 14.9179 10.625 14.8522L19.625 9.60217C19.7397 9.5353 19.8701 9.50006 20.0028 9.50006C20.1356 9.50006 20.2659 9.5353 20.3806 9.60217L29.3806 14.8522C29.4938 14.9182 29.5878 15.0128 29.6531 15.1265C29.7183 15.2401 29.7527 15.3689 29.7527 15.5C29.7527 15.6311 29.7183 15.7598 29.6531 15.8735C29.5878 15.9872 29.4938 16.0817 29.3806 16.1478L20.3806 21.3978C20.2659 21.4647 20.1356 21.4999 20.0028 21.4999C19.8701 21.4999 19.7397 21.4647 19.625 21.3978L10.625 16.1478C10.5112 16.0821 10.4167 15.9877 10.3509 15.874C10.2851 15.7603 10.2503 15.6313 10.25 15.5ZM12.4887 15.5L20 19.8819L27.5112 15.5L20 11.1181L12.4887 15.5Z"
    />
</svg>
