<svg width="40" height="40" viewBox="0 0 40 40" fill="#848CAC" xmlns="http://www.w3.org/2000/svg">
    <path d="M19.4694 18.2806C19.539 18.3504 19.6217 18.4057 19.7128 18.4434C19.8038 18.4812 19.9014 18.5006 20 18.5006C20.0985 18.5006 20.1961 18.4812 20.2872 18.4434C20.3782 18.4057 20.4609 18.3504 20.5306 18.2806L24.2806 14.5306C24.3503 14.461 24.4057 14.3783 24.4434 14.2872C24.4811 14.1962 24.5006 14.0986 24.5006 14C24.5006 13.9014 24.4811 13.8039 24.4434 13.7128C24.4057 13.6218 24.3503 13.539 24.2806 13.4694L20.5306 9.71939C20.4609 9.64965 20.3782 9.59433 20.2872 9.55659C20.1961 9.51885 20.0985 9.49942 20 9.49942C19.9014 9.49942 19.8038 9.51885 19.7128 9.55659C19.6217 9.59433 19.539 9.64965 19.4694 9.71939L15.7194 13.4694C15.6496 13.539 15.5943 13.6218 15.5566 13.7128C15.5188 13.8039 15.4994 13.9014 15.4994 14C15.4994 14.0986 15.5188 14.1962 15.5566 14.2872C15.5943 14.3783 15.6496 14.461 15.7194 14.5306L19.4694 18.2806ZM20 11.3103L22.6897 14L20 16.6897L17.3103 14L20 11.3103ZM20.5306 21.7166C20.4609 21.6468 20.3782 21.5915 20.2872 21.5538C20.1961 21.516 20.0985 21.4966 20 21.4966C19.9014 21.4966 19.8038 21.516 19.7128 21.5538C19.6217 21.5915 19.539 21.6468 19.4694 21.7166L15.7194 25.4666C15.6496 25.5362 15.5943 25.6189 15.5566 25.71C15.5188 25.801 15.4994 25.8986 15.4994 25.9972C15.4994 26.0958 15.5188 26.1934 15.5566 26.2844C15.5943 26.3755 15.6496 26.4582 15.7194 26.5278L19.4694 30.2778C19.539 30.3476 19.6217 30.4029 19.7128 30.4406C19.8038 30.4784 19.9014 30.4978 20 30.4978C20.0985 30.4978 20.1961 30.4784 20.2872 30.4406C20.3782 30.4029 20.4609 30.3476 20.5306 30.2778L24.2806 26.5278C24.3503 26.4582 24.4057 26.3755 24.4434 26.2844C24.4811 26.1934 24.5006 26.0958 24.5006 25.9972C24.5006 25.8986 24.4811 25.801 24.4434 25.71C24.4057 25.6189 24.3503 25.5362 24.2806 25.4666L20.5306 21.7166ZM20 28.6897L17.3103 26L20 23.3103L22.6897 26L20 28.6897ZM30.2806 19.4694L26.5306 15.7194C26.4609 15.6497 26.3782 15.5943 26.2872 15.5566C26.1961 15.5188 26.0985 15.4994 26 15.4994C25.9014 15.4994 25.8038 15.5188 25.7128 15.5566C25.6217 15.5943 25.539 15.6497 25.4694 15.7194L21.7194 19.4694C21.6496 19.539 21.5943 19.6218 21.5566 19.7128C21.5188 19.8039 21.4994 19.9014 21.4994 20C21.4994 20.0986 21.5188 20.1962 21.5566 20.2872C21.5943 20.3783 21.6496 20.461 21.7194 20.5306L25.4694 24.2806C25.539 24.3504 25.6217 24.4057 25.7128 24.4434C25.8038 24.4812 25.9014 24.5006 26 24.5006C26.0985 24.5006 26.1961 24.4812 26.2872 24.4434C26.3782 24.4057 26.4609 24.3504 26.5306 24.2806L30.2806 20.5306C30.3503 20.461 30.4057 20.3783 30.4434 20.2872C30.4811 20.1962 30.5006 20.0986 30.5006 20C30.5006 19.9014 30.4811 19.8039 30.4434 19.7128C30.4057 19.6218 30.3503 19.539 30.2806 19.4694ZM26 22.6897L23.3103 20L26 17.3103L28.6897 20L26 22.6897ZM18.2806 19.4694L14.5306 15.7194C14.461 15.6497 14.3782 15.5943 14.2872 15.5566C14.1961 15.5188 14.0985 15.4994 14 15.4994C13.9014 15.4994 13.8038 15.5188 13.7128 15.5566C13.6217 15.5943 13.539 15.6497 13.4694 15.7194L9.71935 19.4694C9.64962 19.539 9.5943 19.6218 9.55656 19.7128C9.51882 19.8039 9.49939 19.9014 9.49939 20C9.49939 20.0986 9.51882 20.1962 9.55656 20.2872C9.5943 20.3783 9.64962 20.461 9.71935 20.5306L13.4694 24.2806C13.539 24.3504 13.6217 24.4057 13.7128 24.4434C13.8038 24.4812 13.9014 24.5006 14 24.5006C14.0985 24.5006 14.1961 24.4812 14.2872 24.4434C14.3782 24.4057 14.461 24.3504 14.5306 24.2806L18.2806 20.5306C18.3503 20.461 18.4057 20.3783 18.4434 20.2872C18.4811 20.1962 18.5006 20.0986 18.5006 20C18.5006 19.9014 18.4811 19.8039 18.4434 19.7128C18.4057 19.6218 18.3503 19.539 18.2806 19.4694ZM14 22.6897L11.3103 20L14 17.3103L16.6897 20L14 22.6897Z"
    />
</svg>
