<svg width="40" height="40" viewBox="0 0 40 40" fill="#848CAC" xmlns="http://www.w3.org/2000/svg">
    <path d="M29 11.75V15.125C29 15.3239 28.921 15.5147 28.7803 15.6553C28.6397 15.796 28.4489 15.875 28.25 15.875C28.0511 15.875 27.8603 15.796 27.7197 15.6553C27.579 15.5147 27.5 15.3239 27.5 15.125V12.5H24.875C24.6761 12.5 24.4853 12.421 24.3447 12.2803C24.204 12.1397 24.125 11.9489 24.125 11.75C24.125 11.5511 24.204 11.3603 24.3447 11.2197C24.4853 11.079 24.6761 11 24.875 11H28.25C28.4489 11 28.6397 11.079 28.7803 11.2197C28.921 11.3603 29 11.5511 29 11.75ZM28.25 24.125C28.0511 24.125 27.8603 24.204 27.7197 24.3447C27.579 24.4853 27.5 24.6761 27.5 24.875V27.5H24.875C24.6761 27.5 24.4853 27.579 24.3447 27.7197C24.204 27.8603 24.125 28.0511 24.125 28.25C24.125 28.4489 24.204 28.6397 24.3447 28.7803C24.4853 28.921 24.6761 29 24.875 29H28.25C28.4489 29 28.6397 28.921 28.7803 28.7803C28.921 28.6397 29 28.4489 29 28.25V24.875C29 24.6761 28.921 24.4853 28.7803 24.3447C28.6397 24.204 28.4489 24.125 28.25 24.125ZM15.125 27.5H12.5V24.875C12.5 24.6761 12.421 24.4853 12.2803 24.3447C12.1397 24.204 11.9489 24.125 11.75 24.125C11.5511 24.125 11.3603 24.204 11.2197 24.3447C11.079 24.4853 11 24.6761 11 24.875V28.25C11 28.4489 11.079 28.6397 11.2197 28.7803C11.3603 28.921 11.5511 29 11.75 29H15.125C15.3239 29 15.5147 28.921 15.6553 28.7803C15.796 28.6397 15.875 28.4489 15.875 28.25C15.875 28.0511 15.796 27.8603 15.6553 27.7197C15.5147 27.579 15.3239 27.5 15.125 27.5ZM11.75 15.875C11.9489 15.875 12.1397 15.796 12.2803 15.6553C12.421 15.5147 12.5 15.3239 12.5 15.125V12.5H15.125C15.3239 12.5 15.5147 12.421 15.6553 12.2803C15.796 12.1397 15.875 11.9489 15.875 11.75C15.875 11.5511 15.796 11.3603 15.6553 11.2197C15.5147 11.079 15.3239 11 15.125 11H11.75C11.5511 11 11.3603 11.079 11.2197 11.2197C11.079 11.3603 11 11.5511 11 11.75V15.125C11 15.3239 11.079 15.5147 11.2197 15.6553C11.3603 15.796 11.5511 15.875 11.75 15.875ZM24.5 24.5C24.3835 24.5003 24.2685 24.4734 24.1642 24.4214C24.0599 24.3695 23.9691 24.294 23.8991 24.2009C23.445 23.5955 22.8561 23.1041 22.1792 22.7656C21.5023 22.4271 20.7559 22.2509 19.9991 22.2509C19.2422 22.2509 18.4958 22.4271 17.8189 22.7656C17.142 23.1041 16.5532 23.5955 16.0991 24.2009C15.9795 24.3601 15.8016 24.4652 15.6045 24.4931C15.4074 24.5211 15.2073 24.4696 15.0481 24.35C14.889 24.2304 14.7839 24.0525 14.7559 23.8554C14.728 23.6583 14.7795 23.4582 14.8991 23.2991C15.5637 22.4091 16.4496 21.7084 17.4688 21.2666C16.9103 20.7567 16.519 20.0899 16.3463 19.3537C16.1736 18.6175 16.2275 17.8462 16.5009 17.1412C16.7744 16.4362 17.2546 15.8303 17.8785 15.403C18.5025 14.9758 19.241 14.7472 19.9972 14.7472C20.7534 14.7472 21.4919 14.9758 22.1159 15.403C22.7398 15.8303 23.22 16.4362 23.4934 17.1412C23.7669 17.8462 23.8208 18.6175 23.6481 19.3537C23.4753 20.0899 23.0841 20.7567 22.5256 21.2666C23.5454 21.7081 24.432 22.4088 25.0972 23.2991C25.1809 23.4103 25.232 23.5426 25.2447 23.6812C25.2575 23.8199 25.2314 23.9593 25.1694 24.0839C25.1075 24.2086 25.012 24.3135 24.8938 24.387C24.7756 24.4605 24.6392 24.4996 24.5 24.5ZM20 20.75C20.445 20.75 20.88 20.618 21.25 20.3708C21.62 20.1236 21.9084 19.7722 22.0787 19.361C22.249 18.9499 22.2936 18.4975 22.2068 18.061C22.12 17.6246 21.9057 17.2237 21.591 16.909C21.2763 16.5943 20.8754 16.38 20.439 16.2932C20.0025 16.2064 19.5501 16.251 19.139 16.4213C18.7278 16.5916 18.3764 16.88 18.1292 17.25C17.882 17.62 17.75 18.055 17.75 18.5C17.75 19.0967 17.9871 19.669 18.409 20.091C18.831 20.5129 19.4033 20.75 20 20.75Z"
    />
</svg>
